<svg xmlns="http://www.w3.org/2000/svg" id="a" viewBox="0 0 2000 586.66">
  <defs>
    
  </defs>
  <g>
    <path d="M170.18,424.58v-13.38l4.58-1.34c1.78-.44,3.3-1.22,4.58-2.34,1.27-1.11,2.29-2.79,3.05-5.02.76-2.23,1.33-5.29,1.72-9.2.38-3.9.57-8.98.57-15.22v-168.27c0-1.56-.64-2.9-1.91-4.01-1.28-1.11-2.67-1.67-4.2-1.67h-12.59c-5.85,0-11.13.5-15.83,1.51-4.71,1-8.9,2.62-12.59,4.85-3.69,2.23-7.12,5.13-10.3,8.7-3.18,3.57-6.17,7.92-8.96,13.05l-2.29,3.34-13.73-2.01,3.05-45.5h200.99l3.05,45.5-14.49,2.01-1.53-3.68c-3.05-5.13-6.17-9.42-9.34-12.88-3.18-3.46-6.67-6.3-10.49-8.53-3.81-2.23-8.14-3.85-12.97-4.85-4.83-1-10.43-1.51-16.78-1.51h-9.92c-2.04,0-3.62.56-4.77,1.67-1.14,1.12-1.72,2.46-1.72,4.01v168.27c0,6.25.19,11.32.57,15.22.38,3.9.95,6.97,1.72,9.2.76,2.23,1.84,3.91,3.24,5.02,1.39,1.12,2.99,1.9,4.77,2.34l4.58,1.34v13.38h-72.08Z" fill="rgb(227, 0, 5)"/>
    <path d="M486.31,411.2l4.58-1.34c1.78-.44,3.3-1.22,4.58-2.34,1.27-1.11,2.29-2.79,3.05-5.02.76-2.23,1.33-5.29,1.72-9.2.38-3.9.57-8.98.57-15.22v-70.59h-128.15v70.59c0,6.25.19,11.32.57,15.22.38,3.9,1.01,6.97,1.91,9.2.89,2.23,2.03,3.91,3.43,5.02,1.39,1.12,2.99,1.9,4.77,2.34l4.2,1.34v13.38h-71.32v-13.38l4.2-1.34c1.78-.44,3.3-1.22,4.58-2.34,1.27-1.11,2.35-2.79,3.24-5.02.89-2.23,1.53-5.29,1.91-9.2.38-3.9.57-8.98.57-15.22v-148.87c0-9.81-.89-16.39-2.67-19.74-1.78-3.34-4.33-5.57-7.63-6.69l-4.2-.67v-14.05h71.32v14.05l-4.2.67c-1.78.45-3.31,1.17-4.58,2.17-1.28,1-2.35,2.57-3.24,4.68-.89,2.12-1.59,4.85-2.1,8.2-.51,3.35-.76,7.58-.76,12.71v61.22h128.15v-62.56c0-9.81-.83-16.39-2.48-19.74-1.66-3.34-4.14-5.57-7.44-6.69l-4.58-.67v-14.05h71.7v14.05l-4.58.67c-1.53.45-2.93,1.17-4.2,2.17-1.28,1-2.35,2.57-3.24,4.68-.89,2.12-1.59,4.85-2.1,8.2-.51,3.35-.76,7.58-.76,12.71v147.53c0,6.25.19,11.32.57,15.22.38,3.9,1.01,6.97,1.91,9.2.89,2.23,1.97,3.91,3.24,5.02,1.27,1.12,2.79,1.9,4.58,2.34l4.58,1.34v13.38h-71.7v-13.38Z" fill="rgb(227, 0, 5)"/>
    <path d="M575.66,411.2l4.2-1.34c1.78-.44,3.3-1.22,4.58-2.34,1.27-1.11,2.35-2.79,3.24-5.02.89-2.23,1.53-5.29,1.91-9.2.38-3.9.57-8.98.57-15.22v-143.52c0-6.02-.19-10.98-.57-14.89-.38-3.9-1.02-7.02-1.91-9.37-.89-2.34-1.97-4.07-3.24-5.19-1.27-1.11-2.8-1.89-4.58-2.34l-4.2-.67v-14.05h196.42l4.58,51.52-14.87,3.35-1.53-4.35c-5.6-12.26-13.48-21.13-23.65-26.6-10.17-5.46-24.41-8.2-42.72-8.2h-44.24c-4.58-.22-8.14-.33-10.68-.33h-6.48v87.31h54.54c9.66,0,17.6-.39,23.84-1.17,6.23-.78,11.19-1.89,14.87-3.34,3.68-1.45,6.42-3.35,8.2-5.69,1.78-2.34,3.18-4.96,4.2-7.86l1.53-3.68h14.87v59.21h-14.87l-1.53-4.01c-1.02-2.9-2.42-5.46-4.2-7.69-1.78-2.23-4.52-4.12-8.2-5.69-3.69-1.56-8.65-2.73-14.87-3.51-6.23-.78-14.18-1.17-23.84-1.17h-54.54v103.04h72.08c17.79,0,31.72-2.73,41.76-8.2,10.04-5.46,17.73-14.55,23.07-27.26l2.29-4.01,14.11,2.01-3.81,52.86h-206.33v-13.38Z" fill="rgb(227, 0, 5)"/>
    <path d="M999.73,397.82c2.79,3.35,6.54,6.02,11.25,8.03,4.7,2.01,9.85,3.13,15.45,3.34v15.72h-31.66c-9.15,0-17.73-1.95-25.74-5.85-8.01-3.9-14.56-9.08-19.64-15.56l-54.16-68.92c-3.05.23-6.1.39-9.15.5-3.05.12-6.36.17-9.92.17h-19.83v42.82c0,6.25.19,11.32.57,15.22.38,3.9.95,6.97,1.72,9.2.76,2.23,1.84,3.91,3.24,5.02,1.39,1.12,2.99,1.9,4.77,2.34l4.2,1.34v13.38h-71.32v-13.38l4.2-1.34c1.78-.44,3.3-1.22,4.58-2.34,1.27-1.11,2.35-2.79,3.24-5.02.89-2.23,1.53-5.29,1.91-9.2.38-3.9.57-8.98.57-15.22v-143.52c0-6.02-.19-10.98-.57-14.89-.38-3.9-1.02-7.02-1.91-9.37-.89-2.34-1.97-4.07-3.24-5.19-1.27-1.11-2.8-1.89-4.58-2.34l-4.2-.67v-14.05h82.76c16.27,0,30.06,1.34,41.38,4.01,11.31,2.68,20.85,6.14,28.6,10.37,7.75,4.24,13.92,8.92,18.5,14.05,4.58,5.13,8.01,10.26,10.3,15.39,2.29,5.13,3.75,9.93,4.39,14.38.63,4.46.95,8.03.95,10.71,0,15.61-4.33,29.22-12.97,40.81-8.65,11.6-20.73,20.52-36.23,26.76,4.32,2.23,8.26,5.24,11.82,9.03l50.73,64.23ZM875.39,319.88c21.61,0,38.07-4.74,49.39-14.22,11.31-9.48,16.97-23.14,16.97-40.98,0-5.8-.83-12.21-2.48-19.24-1.66-7.03-4.96-13.6-9.92-19.74-4.96-6.13-12.15-11.26-21.55-15.39-9.41-4.12-22-6.19-37.76-6.19h-13.73v115.75h19.07Z" fill="rgb(34, 30, 42)"/>
    <path d="M1033.56,411.2l4.2-1.34c1.78-.44,3.3-1.22,4.58-2.34,1.27-1.11,2.35-2.79,3.24-5.02.89-2.23,1.53-5.29,1.91-9.2.38-3.9.57-8.98.57-15.22v-143.52c0-6.02-.19-10.98-.57-14.89-.38-3.9-1.02-7.02-1.91-9.37-.89-2.34-1.97-4.07-3.24-5.19-1.27-1.11-2.8-1.89-4.58-2.34l-4.2-.67v-14.05h196.42l4.58,51.52-14.87,3.35-1.53-4.35c-5.6-12.26-13.48-21.13-23.65-26.6-10.17-5.46-24.41-8.2-42.72-8.2h-44.24c-4.58-.22-8.14-.33-10.68-.33h-6.48v87.31h54.54c9.66,0,17.6-.39,23.84-1.17,6.23-.78,11.19-1.89,14.87-3.34,3.68-1.45,6.42-3.35,8.2-5.69,1.78-2.34,3.18-4.96,4.2-7.86l1.53-3.68h14.87v59.21h-14.87l-1.53-4.01c-1.02-2.9-2.42-5.46-4.2-7.69-1.78-2.23-4.52-4.12-8.2-5.69-3.69-1.56-8.65-2.73-14.87-3.51-6.23-.78-14.18-1.17-23.84-1.17h-54.54v103.04h72.08c17.79,0,31.72-2.73,41.76-8.2,10.04-5.46,17.73-14.55,23.07-27.26l2.29-4.01,14.11,2.01-3.81,52.86h-206.33v-13.38Z" fill="rgb(34, 30, 42)"/>
    <path d="M1433.18,424.58v-14.05l4.58-.67,1.14-1c1.27-1.78,1.91-4.12,1.91-7.03,0-2.45-.76-5.35-2.29-8.7-.76-1.56-1.85-4.01-3.24-7.36-1.4-3.35-2.99-7.13-4.77-11.37-1.78-4.23-3.69-8.58-5.72-13.05-2.04-4.46-3.81-8.47-5.34-12.04-1.27-2.68-2.23-4.68-2.86-6.02-.64-1.34-1.21-2.56-1.72-3.68h-97.25l-22.5,48.17c-1.53,3.57-2.54,6.75-3.05,9.53-.51,2.79-.76,5.85-.76,9.2,1.53,1.56,3.56,2.68,6.1,3.35l4.58,1.34v13.38h-53.78v-13.38l4.2-1.34c2.03-.44,4-1.11,5.91-2.01,1.91-.89,3.87-2.28,5.91-4.18,2.03-1.89,4.25-4.57,6.67-8.03,2.41-3.46,4.89-7.97,7.44-13.55,1.01-2.45,3.49-8.08,7.44-16.89,3.94-8.81,8.58-19.29,13.92-31.45,5.34-12.15,11.06-25.14,17.16-38.97,6.1-13.83,11.82-26.81,17.16-38.97,5.34-12.15,9.98-22.69,13.92-31.61,3.94-8.92,6.42-14.5,7.44-16.73l-3.81-8.36-.38-5.69v-5.35h41.95l1.14,3.35c12.97,28.99,25.04,56.09,36.23,81.29,4.83,10.71,9.73,21.53,14.68,32.45,4.96,10.93,9.66,21.24,14.11,30.94,4.45,9.7,8.39,18.46,11.82,26.26,3.43,7.81,6.16,13.94,8.2,18.4,2.54,5.58,4.89,10.15,7.06,13.72,2.16,3.57,4.19,6.41,6.1,8.53,1.91,2.12,3.62,3.68,5.15,4.68,1.53,1,3.05,1.73,4.58,2.17l3.81,1.34v13.38h-72.85ZM1408.39,323.89l-43.48-95.34-40.43,95.34h83.91Z" fill="rgb(34, 30, 42)"/>
    <path d="M1512.8,411.2l4.2-1.34c1.78-.44,3.3-1.22,4.58-2.34,1.27-1.11,2.35-2.79,3.24-5.02.89-2.23,1.53-5.29,1.91-9.2.38-3.9.57-8.98.57-15.22v-148.87c0-9.81-.83-16.39-2.48-19.74-1.66-3.34-4.26-5.57-7.82-6.69l-4.2-.67v-14.05h71.32v14.05l-4.2.67c-1.53.45-2.93,1.17-4.2,2.17-1.28,1-2.35,2.57-3.24,4.68-.89,2.12-1.59,4.85-2.1,8.2-.51,3.35-.76,7.58-.76,12.71v169.28c0,6.02,3.56,9.03,10.68,9.03h43.48c17.79,0,31.66-2.28,41.57-6.86,9.92-4.57,16.91-11.76,20.98-21.58l1.53-4.35,15.26,2.34-8.01,46.17h-182.31v-13.38Z" fill="rgb(34, 30, 42)"/>
    <path d="M1809.75,427.93c-10.68,0-21.61-1.45-32.8-4.35-11.19-2.9-21.55-6.63-31.08-11.21-9.53-4.57-17.54-9.7-24.03-15.39-6.48-5.69-10.11-11.32-10.87-16.89-.26-.67-.38-1.78-.38-3.34,0-2.68.44-5.02,1.33-7.03.89-2.01,1.97-3.57,3.24-4.68,2.03-2.23,4.58-3.96,7.63-5.19,3.05-1.22,6.23-1.84,9.53-1.84,6.61,0,12.2,2.01,16.78,6.02,1.01,1.12,2.22,2.57,3.62,4.35,1.39,1.79,2.99,3.68,4.77,5.69,2.54,3.35,5.59,7.19,9.15,11.54,3.56,4.35,7.63,8.42,12.2,12.21,4.58,3.79,9.66,6.97,15.26,9.53,5.59,2.57,11.82,3.85,18.69,3.85,6.35,0,12.97-.89,19.83-2.68,6.86-1.78,13.09-4.29,18.69-7.53,5.59-3.23,10.23-7.19,13.92-11.88,3.68-4.68,5.53-10.04,5.53-16.06s-1.78-10.92-5.34-15.39c-3.56-4.46-8.14-8.47-13.73-12.04-5.6-3.56-11.82-6.8-18.69-9.7-6.87-2.9-13.73-5.69-20.6-8.36l-16.4-7.03c-3.31-1.56-6.55-3.01-9.73-4.35-3.18-1.34-6.29-2.56-9.34-3.68-9.67-4.01-18.56-7.91-26.7-11.71-8.14-3.79-15.13-8.03-20.98-12.71-5.85-4.68-10.43-10.2-13.73-16.56-3.31-6.36-4.96-13.99-4.96-22.92,0-7.8,1.91-15.56,5.72-23.25,3.81-7.69,9.47-14.66,16.97-20.91,7.5-6.24,16.84-11.32,28.03-15.22,11.19-3.9,24.03-5.85,38.52-5.85s27.27,1.4,38.33,4.18c11.06,2.79,20.59,6.47,28.6,11.04,8.01,4.57,14.68,9.65,20.02,15.22,5.34,5.58,9.28,11.15,11.82,16.73,1.27,2.9,1.91,5.58,1.91,8.03,0,5.13-2.16,9.2-6.48,12.21-4.33,3.01-9.03,4.52-14.11,4.52-5.85,0-10.49-1.51-13.92-4.52s-5.91-6.74-7.44-11.21c-1.78-3.56-4.14-7.8-7.06-12.71-2.93-4.9-6.81-9.54-11.63-13.88-4.83-4.35-10.68-8.08-17.54-11.21-6.86-3.12-15.26-4.68-25.17-4.68-6.1,0-12.08.84-17.93,2.51-5.85,1.67-11.13,4.13-15.83,7.36-4.71,3.24-8.65,7.08-11.82,11.54-3.18,4.46-5.28,9.37-6.29,14.72v4.01c0,6.25,2.73,11.99,8.2,17.23,5.46,5.24,12.07,9.93,19.83,14.05,7.75,4.13,15.83,7.64,24.22,10.54,8.39,2.9,15.51,5.24,21.36,7.03l7.63,3.01c9.15,3.34,18.5,6.92,28.03,10.71,9.54,3.79,18.18,8.31,25.93,13.55,7.75,5.24,14.11,11.37,19.07,18.4s7.44,15.45,7.44,25.26c0,10.93-2.93,20.8-8.77,29.61-5.85,8.81-13.48,16.28-22.88,22.41-9.41,6.14-19.9,10.82-31.46,14.05-11.57,3.23-22.95,4.85-34.13,4.85Z" fill="rgb(34, 30, 42)"/>
  </g>
  <rect x="422.86" y="508.75" width="144" height="13.55" fill="none"/>
</svg>