<svg xmlns="http://www.w3.org/2000/svg" id="a" viewBox="0 0 2000 2000">
  <defs>
    
  </defs>
  <g>
    <path d="M166.65,407.78v-13.38l4.58-1.34c1.78-.44,3.3-1.22,4.58-2.34,1.27-1.11,2.29-2.79,3.05-5.02.76-2.23,1.33-5.29,1.72-9.2.38-3.9.57-8.98.57-15.22v-168.27c0-1.56-.64-2.9-1.91-4.01-1.28-1.11-2.67-1.67-4.2-1.67h-12.59c-5.85,0-11.13.5-15.83,1.51-4.71,1-8.9,2.62-12.59,4.85-3.69,2.23-7.12,5.13-10.3,8.7-3.18,3.57-6.17,7.92-8.96,13.05l-2.29,3.34-13.73-2.01,3.05-45.5h200.99l3.05,45.5-14.49,2.01-1.53-3.68c-3.05-5.13-6.17-9.42-9.34-12.88-3.18-3.46-6.67-6.3-10.49-8.53-3.81-2.23-8.14-3.85-12.97-4.85-4.83-1-10.43-1.51-16.78-1.51h-9.92c-2.04,0-3.62.56-4.77,1.67-1.14,1.12-1.72,2.46-1.72,4.01v168.27c0,6.25.19,11.32.57,15.22.38,3.9.95,6.97,1.72,9.2.76,2.23,1.84,3.91,3.24,5.02,1.39,1.12,2.99,1.9,4.77,2.34l4.58,1.34v13.38h-72.08Z" fill="rgb(227, 0, 5)"/>
    <path d="M482.78,394.4l4.58-1.34c1.78-.44,3.3-1.22,4.58-2.34,1.27-1.11,2.29-2.79,3.05-5.02.76-2.23,1.33-5.29,1.72-9.2.38-3.9.57-8.98.57-15.22v-70.59h-128.15v70.59c0,6.25.19,11.32.57,15.22.38,3.9,1.01,6.97,1.91,9.2.89,2.23,2.03,3.91,3.43,5.02,1.39,1.12,2.99,1.9,4.77,2.34l4.2,1.34v13.38h-71.32v-13.38l4.2-1.34c1.78-.44,3.3-1.22,4.58-2.34,1.27-1.11,2.35-2.79,3.24-5.02.89-2.23,1.53-5.29,1.91-9.2.38-3.9.57-8.98.57-15.22v-148.87c0-9.81-.89-16.39-2.67-19.74-1.78-3.34-4.33-5.57-7.63-6.69l-4.2-.67v-14.05h71.32v14.05l-4.2.67c-1.78.45-3.31,1.17-4.58,2.17-1.28,1-2.35,2.57-3.24,4.68-.89,2.12-1.59,4.85-2.1,8.2-.51,3.35-.76,7.58-.76,12.71v61.22h128.15v-62.56c0-9.81-.83-16.39-2.48-19.74-1.66-3.34-4.14-5.57-7.44-6.69l-4.58-.67v-14.05h71.7v14.05l-4.58.67c-1.53.45-2.93,1.17-4.2,2.17-1.28,1-2.35,2.57-3.24,4.68-.89,2.12-1.59,4.85-2.1,8.2-.51,3.35-.76,7.58-.76,12.71v147.53c0,6.25.19,11.32.57,15.22.38,3.9,1.01,6.97,1.91,9.2.89,2.23,1.97,3.91,3.24,5.02,1.27,1.12,2.79,1.9,4.58,2.34l4.58,1.34v13.38h-71.7v-13.38Z" fill="rgb(227, 0, 5)"/>
    <path d="M572.14,394.4l4.2-1.34c1.78-.44,3.3-1.22,4.58-2.34,1.27-1.11,2.35-2.79,3.24-5.02.89-2.23,1.53-5.29,1.91-9.2.38-3.9.57-8.98.57-15.22v-143.52c0-6.02-.19-10.98-.57-14.89-.38-3.9-1.02-7.02-1.91-9.37-.89-2.34-1.97-4.07-3.24-5.19-1.27-1.11-2.8-1.89-4.58-2.34l-4.2-.67v-14.05h196.42l4.58,51.52-14.87,3.35-1.53-4.35c-5.6-12.26-13.48-21.13-23.65-26.6-10.17-5.46-24.41-8.2-42.72-8.2h-44.24c-4.58-.22-8.14-.33-10.68-.33h-6.48v87.31h54.54c9.66,0,17.6-.39,23.84-1.17,6.23-.78,11.19-1.89,14.87-3.34,3.68-1.45,6.42-3.35,8.2-5.69,1.78-2.34,3.18-4.96,4.2-7.86l1.53-3.68h14.87v59.21h-14.87l-1.53-4.01c-1.02-2.9-2.42-5.46-4.2-7.69-1.78-2.23-4.52-4.12-8.2-5.69-3.69-1.56-8.65-2.73-14.87-3.51-6.23-.78-14.18-1.17-23.84-1.17h-54.54v103.04h72.08c17.79,0,31.72-2.73,41.76-8.2,10.04-5.46,17.73-14.55,23.07-27.26l2.29-4.01,14.11,2.01-3.81,52.86h-206.33v-13.38Z" fill="rgb(227, 0, 5)"/>
    <path d="M996.2,381.01c2.79,3.35,6.54,6.02,11.25,8.03,4.7,2.01,9.85,3.13,15.45,3.34v15.72h-31.66c-9.15,0-17.73-1.95-25.74-5.85-8.01-3.9-14.56-9.08-19.64-15.56l-54.16-68.92c-3.05.23-6.1.39-9.15.5-3.05.12-6.36.17-9.92.17h-19.83v42.82c0,6.25.19,11.32.57,15.22.38,3.9.95,6.97,1.72,9.2.76,2.23,1.84,3.91,3.24,5.02,1.39,1.12,2.99,1.9,4.77,2.34l4.2,1.34v13.38h-71.32v-13.38l4.2-1.34c1.78-.44,3.3-1.22,4.58-2.34,1.27-1.11,2.35-2.79,3.24-5.02.89-2.23,1.53-5.29,1.91-9.2.38-3.9.57-8.98.57-15.22v-143.52c0-6.02-.19-10.98-.57-14.89-.38-3.9-1.02-7.02-1.91-9.37-.89-2.34-1.97-4.07-3.24-5.19-1.27-1.11-2.8-1.89-4.58-2.34l-4.2-.67v-14.05h82.76c16.27,0,30.06,1.34,41.38,4.01,11.31,2.68,20.85,6.14,28.6,10.37,7.75,4.24,13.92,8.92,18.5,14.05,4.58,5.13,8.01,10.26,10.3,15.39,2.29,5.13,3.75,9.93,4.39,14.38.63,4.46.95,8.03.95,10.71,0,15.61-4.33,29.22-12.97,40.81-8.65,11.6-20.73,20.52-36.23,26.76,4.32,2.23,8.26,5.24,11.82,9.03l50.73,64.23ZM871.87,303.07c21.61,0,38.07-4.74,49.39-14.22,11.31-9.48,16.97-23.14,16.97-40.98,0-5.8-.83-12.21-2.48-19.24-1.66-7.03-4.96-13.6-9.92-19.74-4.96-6.13-12.15-11.26-21.55-15.39-9.41-4.12-22-6.19-37.76-6.19h-13.73v115.75h19.07Z" fill="rgb(34, 30, 42)"/>
    <path d="M1030.03,394.4l4.2-1.34c1.78-.44,3.3-1.22,4.58-2.34,1.27-1.11,2.35-2.79,3.24-5.02.89-2.23,1.53-5.29,1.91-9.2.38-3.9.57-8.98.57-15.22v-143.52c0-6.02-.19-10.98-.57-14.89-.38-3.9-1.02-7.02-1.91-9.37-.89-2.34-1.97-4.07-3.24-5.19-1.27-1.11-2.8-1.89-4.58-2.34l-4.2-.67v-14.05h196.42l4.58,51.52-14.87,3.35-1.53-4.35c-5.6-12.26-13.48-21.13-23.65-26.6-10.17-5.46-24.41-8.2-42.72-8.2h-44.24c-4.58-.22-8.14-.33-10.68-.33h-6.48v87.31h54.54c9.66,0,17.6-.39,23.84-1.17,6.23-.78,11.19-1.89,14.87-3.34,3.68-1.45,6.42-3.35,8.2-5.69,1.78-2.34,3.18-4.96,4.2-7.86l1.53-3.68h14.87v59.21h-14.87l-1.53-4.01c-1.02-2.9-2.42-5.46-4.2-7.69-1.78-2.23-4.52-4.12-8.2-5.69-3.69-1.56-8.65-2.73-14.87-3.51-6.23-.78-14.18-1.17-23.84-1.17h-54.54v103.04h72.08c17.79,0,31.72-2.73,41.76-8.2,10.04-5.46,17.73-14.55,23.07-27.26l2.29-4.01,14.11,2.01-3.81,52.86h-206.33v-13.38Z" fill="rgb(34, 30, 42)"/>
    <path d="M1429.65,407.78v-14.05l4.58-.67,1.14-1c1.27-1.78,1.91-4.12,1.91-7.03,0-2.45-.76-5.35-2.29-8.7-.76-1.56-1.85-4.01-3.24-7.36-1.4-3.35-2.99-7.13-4.77-11.37-1.78-4.23-3.69-8.58-5.72-13.05-2.04-4.46-3.81-8.47-5.34-12.04-1.27-2.68-2.23-4.68-2.86-6.02-.64-1.34-1.21-2.56-1.72-3.68h-97.25l-22.5,48.17c-1.53,3.57-2.54,6.75-3.05,9.53-.51,2.79-.76,5.85-.76,9.2,1.53,1.56,3.56,2.68,6.1,3.35l4.58,1.34v13.38h-53.78v-13.38l4.2-1.34c2.03-.44,4-1.11,5.91-2.01,1.91-.89,3.87-2.28,5.91-4.18,2.03-1.89,4.25-4.57,6.67-8.03,2.41-3.46,4.89-7.97,7.44-13.55,1.01-2.45,3.49-8.08,7.44-16.89,3.94-8.81,8.58-19.29,13.92-31.45,5.34-12.15,11.06-25.14,17.16-38.97,6.1-13.83,11.82-26.81,17.16-38.97,5.34-12.15,9.98-22.69,13.92-31.61,3.94-8.92,6.42-14.5,7.44-16.73l-3.81-8.36-.38-5.69v-5.35h41.95l1.14,3.35c12.97,28.99,25.04,56.09,36.23,81.29,4.83,10.71,9.73,21.53,14.68,32.45,4.96,10.93,9.66,21.24,14.11,30.94,4.45,9.7,8.39,18.46,11.82,26.26,3.43,7.81,6.16,13.94,8.2,18.4,2.54,5.58,4.89,10.15,7.06,13.72,2.16,3.57,4.19,6.41,6.1,8.53,1.91,2.12,3.62,3.68,5.15,4.68,1.53,1,3.05,1.73,4.58,2.17l3.81,1.34v13.38h-72.85ZM1404.86,307.08l-43.48-95.34-40.43,95.34h83.91Z" fill="rgb(34, 30, 42)"/>
    <path d="M1509.28,394.4l4.2-1.34c1.78-.44,3.3-1.22,4.58-2.34,1.27-1.11,2.35-2.79,3.24-5.02.89-2.23,1.53-5.29,1.91-9.2.38-3.9.57-8.98.57-15.22v-148.87c0-9.81-.83-16.39-2.48-19.74-1.66-3.34-4.26-5.57-7.82-6.69l-4.2-.67v-14.05h71.32v14.05l-4.2.67c-1.53.45-2.93,1.17-4.2,2.17-1.28,1-2.35,2.57-3.24,4.68-.89,2.12-1.59,4.85-2.1,8.2-.51,3.35-.76,7.58-.76,12.71v169.28c0,6.02,3.56,9.03,10.68,9.03h43.48c17.79,0,31.66-2.28,41.57-6.86,9.92-4.57,16.91-11.76,20.98-21.58l1.53-4.35,15.26,2.34-8.01,46.17h-182.31v-13.38Z" fill="rgb(34, 30, 42)"/>
    <path d="M1806.23,411.12c-10.68,0-21.61-1.45-32.8-4.35-11.19-2.9-21.55-6.63-31.08-11.21-9.53-4.57-17.54-9.7-24.03-15.39-6.48-5.69-10.11-11.32-10.87-16.89-.26-.67-.38-1.78-.38-3.34,0-2.68.44-5.02,1.33-7.03.89-2.01,1.97-3.57,3.24-4.68,2.03-2.23,4.58-3.96,7.63-5.19,3.05-1.22,6.23-1.84,9.53-1.84,6.61,0,12.2,2.01,16.78,6.02,1.01,1.12,2.22,2.57,3.62,4.35,1.39,1.79,2.99,3.68,4.77,5.69,2.54,3.35,5.59,7.19,9.15,11.54,3.56,4.35,7.63,8.42,12.2,12.21,4.58,3.79,9.66,6.97,15.26,9.53,5.59,2.57,11.82,3.85,18.69,3.85,6.35,0,12.97-.89,19.83-2.68,6.86-1.78,13.09-4.29,18.69-7.53,5.59-3.23,10.23-7.19,13.92-11.88,3.68-4.68,5.53-10.04,5.53-16.06s-1.78-10.92-5.34-15.39c-3.56-4.46-8.14-8.47-13.73-12.04-5.6-3.56-11.82-6.8-18.69-9.7-6.87-2.9-13.73-5.69-20.6-8.36l-16.4-7.03c-3.31-1.56-6.55-3.01-9.73-4.35-3.18-1.34-6.29-2.56-9.34-3.68-9.67-4.01-18.56-7.91-26.7-11.71-8.14-3.79-15.13-8.03-20.98-12.71-5.85-4.68-10.43-10.2-13.73-16.56-3.31-6.36-4.96-13.99-4.96-22.92,0-7.8,1.91-15.56,5.72-23.25,3.81-7.69,9.47-14.66,16.97-20.91,7.5-6.24,16.84-11.32,28.03-15.22,11.19-3.9,24.03-5.85,38.52-5.85s27.27,1.4,38.33,4.18c11.06,2.79,20.59,6.47,28.6,11.04,8.01,4.57,14.68,9.65,20.02,15.22,5.34,5.58,9.28,11.15,11.82,16.73,1.27,2.9,1.91,5.58,1.91,8.03,0,5.13-2.16,9.2-6.48,12.21-4.33,3.01-9.03,4.52-14.11,4.52-5.85,0-10.49-1.51-13.92-4.52s-5.91-6.74-7.44-11.21c-1.78-3.56-4.14-7.8-7.06-12.71-2.93-4.9-6.81-9.54-11.63-13.88-4.83-4.35-10.68-8.08-17.54-11.21-6.86-3.12-15.26-4.68-25.17-4.68-6.1,0-12.08.84-17.93,2.51-5.85,1.67-11.13,4.13-15.83,7.36-4.71,3.24-8.65,7.08-11.82,11.54-3.18,4.46-5.28,9.37-6.29,14.72v4.01c0,6.25,2.73,11.99,8.2,17.23,5.46,5.24,12.07,9.93,19.83,14.05,7.75,4.13,15.83,7.64,24.22,10.54,8.39,2.9,15.51,5.24,21.36,7.03l7.63,3.01c9.15,3.34,18.5,6.92,28.03,10.71,9.54,3.79,18.18,8.31,25.93,13.55,7.75,5.24,14.11,11.37,19.07,18.4s7.44,15.45,7.44,25.26c0,10.93-2.93,20.8-8.77,29.61-5.85,8.81-13.48,16.28-22.88,22.41-9.41,6.14-19.9,10.82-31.46,14.05-11.57,3.23-22.95,4.85-34.13,4.85Z" fill="rgb(34, 30, 42)"/>
  </g>
  <rect x="21.92" y="977.12" width="2008.5" height="1047.98"/>
  <g>
    <path d="M226.35,1397.47v-8.4l2.13-.62c2.13-.62,3.96-1.45,5.5-2.49,1.54-1.03,2.71-2.75,3.55-5.13.83-2.38,1.47-5.6,1.95-9.64.47-4.04.71-9.17.71-15.39v-160.17c0-2.28-.83-4.15-2.48-5.6-1.66-1.45-3.78-2.18-6.38-2.18h-11.7c-12.06,0-21.69,2.02-28.9,6.06-7.21,4.04-13.53,11.35-18.97,21.93l-1.06,1.55-8.51-1.24,2.48-38.57h185.44l2.48,38.57-8.86,1.24-.71-1.55c-2.84-5.39-5.79-9.84-8.86-13.37-3.08-3.52-6.56-6.38-10.46-8.55-3.9-2.18-8.33-3.73-13.3-4.67s-10.64-1.4-17.02-1.4h-9.22c-2.6,0-4.79.73-6.56,2.18-1.77,1.45-2.66,3.32-2.66,5.6v160.17c0,6.22.23,11.35.71,15.39.47,4.04,1.18,7.26,2.13,9.64.94,2.39,2.18,4.1,3.72,5.13,1.54,1.04,3.37,1.87,5.5,2.49l2.13.62v8.4h-62.76Z" fill="rgb(246, 246, 245)"/>
    <path d="M520.92,1389.08l2.13-.62c2.13-.62,3.9-1.45,5.32-2.49,1.42-1.03,2.6-2.75,3.55-5.13.94-2.38,1.65-5.6,2.13-9.64.47-4.04.71-9.17.71-15.39v-69.67h-127.64v69.67c0,6.22.23,11.35.71,15.39.47,4.04,1.24,7.26,2.3,9.64,1.06,2.39,2.3,4.1,3.72,5.13,1.42,1.04,3.19,1.87,5.32,2.49l2.13.62v8.4h-62.4v-8.4l2.13-.62c2.13-.62,3.9-1.45,5.32-2.49,1.42-1.03,2.6-2.75,3.55-5.13.94-2.38,1.65-5.6,2.13-9.64.47-4.04.71-9.17.71-15.39v-141.51c0-5.18-.24-9.43-.71-12.75-.48-3.31-1.24-5.96-2.3-7.93-1.06-1.97-2.3-3.47-3.72-4.51-1.42-1.04-3.07-1.87-4.96-2.49l-2.13-.31v-8.71h62.4v8.71l-2.13.31c-1.9.62-3.61,1.45-5.14,2.49-1.54,1.04-2.84,2.59-3.9,4.67-1.06,2.08-1.83,4.87-2.3,8.4-.48,3.53-.71,7.98-.71,13.37v60.65h127.64v-61.89c0-5.18-.24-9.43-.71-12.75-.48-3.31-1.24-5.96-2.3-7.93-1.06-1.97-2.3-3.47-3.72-4.51-1.42-1.04-3.07-1.87-4.96-2.49l-2.13-.31v-8.71h62.4v8.71l-2.13.31c-1.89.62-3.61,1.45-5.14,2.49-1.54,1.04-2.84,2.59-3.9,4.67-1.06,2.08-1.83,4.87-2.3,8.4-.48,3.53-.71,7.98-.71,13.37v140.26c0,6.22.23,11.35.71,15.39.47,4.04,1.18,7.26,2.13,9.64.94,2.39,2.18,4.1,3.72,5.13,1.53,1.04,3.37,1.87,5.5,2.49l2.13.62v8.4h-62.4v-8.4Z" fill="rgb(246, 246, 245)"/>
    <path d="M598.82,1389.08l2.13-.62c2.13-.62,3.9-1.45,5.32-2.49,1.42-1.03,2.6-2.75,3.55-5.13.94-2.38,1.65-5.6,2.13-9.64.47-4.04.71-9.17.71-15.39v-136.53c0-6.22-.24-11.35-.71-15.4-.48-4.04-1.19-7.25-2.13-9.64-.95-2.38-2.13-4.09-3.55-5.13-1.42-1.04-3.19-1.87-5.32-2.49l-2.13-.31v-8.71h181.18l4.25,44.47-8.86,2.18-.71-2.18c-2.84-6.22-6.15-11.51-9.93-15.86-3.78-4.35-8.33-7.93-13.65-10.73-5.32-2.8-11.47-4.82-18.44-6.06-6.97-1.24-14.95-1.87-23.93-1.87h-16.49c-6.27,0-12.41-.05-18.44-.16-6.03-.1-11.47-.16-16.31-.16h-10.11v88.01h54.6c9.69,0,17.61-.41,23.76-1.24,6.14-.83,11.11-2.02,14.89-3.58,3.78-1.55,6.61-3.52,8.51-5.91,1.89-2.38,3.31-5.13,4.25-8.24l.71-1.87h9.22v51.32h-9.22l-.71-1.87c-.95-3.11-2.37-5.86-4.25-8.24-1.89-2.38-4.73-4.35-8.51-5.91-3.78-1.56-8.75-2.75-14.89-3.58-6.15-.83-14.07-1.24-23.76-1.24h-54.6v102.94h71.27c17.49,0,31.26-2.69,41.31-8.09,10.04-5.39,17.78-14.41,23.22-27.06l1.06-2.18,8.51,1.55-3.19,45.41h-190.76v-8.4Z" fill="rgb(246, 246, 245)"/>
    <path d="M989.72,1376.02c2.84,3.53,6.44,6.33,10.81,8.4,4.37,2.08,9.04,3.22,14.01,3.42v9.95h-27.3c-8.28,0-16.02-1.71-23.22-5.13-7.21-3.42-13.06-8.13-17.55-14.15l-52.48-66.87c-5.91.62-12.41.93-19.5.93h-21.63v43.23c0,6.22.18,11.35.53,15.39s1,7.26,1.95,9.64c.94,2.39,2.18,4.1,3.72,5.13,1.53,1.04,3.37,1.87,5.5,2.49l2.13.62v8.4h-62.4v-8.4l2.13-.62c2.13-.62,3.9-1.45,5.32-2.49,1.42-1.03,2.6-2.75,3.55-5.13.94-2.38,1.65-5.6,2.13-9.64.47-4.04.71-9.17.71-15.39v-136.53c0-6.22-.24-11.35-.71-15.4-.48-4.04-1.19-7.25-2.13-9.64-.95-2.38-2.13-4.09-3.55-5.13-1.42-1.04-3.19-1.87-5.32-2.49l-2.13-.31v-8.71h75.88c14.89,0,27.59,1.2,38.12,3.58,10.52,2.39,19.38,5.55,26.59,9.49,7.21,3.94,12.88,8.24,17.02,12.91,4.13,4.67,7.32,9.38,9.57,14.15,2.24,4.77,3.66,9.17,4.25,13.22.59,4.04.89,7.31.89,9.8,0,15.35-4.43,28.51-13.3,39.5-8.86,10.99-21.45,19.18-37.76,24.57,6.14,1.87,11.35,5.29,15.6,10.26l48.58,60.96ZM873.78,1302.93c21.51,0,37.88-4.71,49.11-14.15,11.22-9.43,16.84-23.06,16.84-40.9,0-5.6-.83-11.92-2.48-18.97-1.66-7.05-4.96-13.58-9.93-19.59-4.96-6.01-12.12-11.09-21.45-15.24-9.34-4.15-21.69-6.22-37.05-6.22h-15.96v115.07h20.92Z" fill="rgb(227, 0, 5)"/>
    <path d="M1021.17,1389.08l2.13-.62c2.13-.62,3.9-1.45,5.32-2.49,1.42-1.03,2.6-2.75,3.55-5.13.94-2.38,1.65-5.6,2.13-9.64.47-4.04.71-9.17.71-15.39v-136.53c0-6.22-.24-11.35-.71-15.4-.48-4.04-1.19-7.25-2.13-9.64-.95-2.38-2.13-4.09-3.55-5.13-1.42-1.04-3.19-1.87-5.32-2.49l-2.13-.31v-8.71h181.18l4.25,44.47-8.86,2.18-.71-2.18c-2.84-6.22-6.15-11.51-9.93-15.86-3.78-4.35-8.33-7.93-13.65-10.73-5.32-2.8-11.47-4.82-18.44-6.06-6.97-1.24-14.95-1.87-23.93-1.87h-16.49c-6.27,0-12.41-.05-18.44-.16-6.03-.1-11.47-.16-16.31-.16h-10.11v88.01h54.6c9.69,0,17.61-.41,23.76-1.24,6.14-.83,11.11-2.02,14.89-3.58,3.78-1.55,6.61-3.52,8.51-5.91,1.89-2.38,3.31-5.13,4.25-8.24l.71-1.87h9.22v51.32h-9.22l-.71-1.87c-.95-3.11-2.37-5.86-4.25-8.24-1.89-2.38-4.73-4.35-8.51-5.91-3.78-1.56-8.75-2.75-14.89-3.58-6.15-.83-14.07-1.24-23.76-1.24h-54.6v102.94h71.27c17.49,0,31.26-2.69,41.31-8.09,10.04-5.39,17.78-14.41,23.22-27.06l1.06-2.18,8.51,1.55-3.19,45.41h-190.76v-8.4Z" fill="rgb(227, 0, 5)"/>
    <path d="M1395.17,1397.47v-8.71l2.13-.31c1.65-.2,2.71-1.04,3.19-2.49,1.18-1.66,1.83-3.99,1.95-7,.12-3-.65-6.27-2.3-9.8-.95-1.87-2.48-5.29-4.61-10.26-2.13-4.98-4.43-10.26-6.91-15.86-2.48-5.6-4.79-10.88-6.91-15.86-2.13-4.98-3.67-8.5-4.61-10.57h-96.8l-21.98,47.58c-4.25,9.33-5.44,15.97-3.55,19.9.71,1.04,1.65,1.92,2.84,2.64,1.18.73,2.84,1.3,4.96,1.71l2.13.62v8.4h-45.38v-8.4l2.13-.62c1.89-.62,3.84-1.29,5.85-2.02,2-.72,4.08-2.02,6.2-3.89,2.13-1.87,4.37-4.56,6.74-8.09,2.36-3.52,4.84-8.19,7.45-14,.47-1.24,1.89-4.4,4.25-9.48,2.36-5.08,5.2-11.4,8.51-18.97,3.31-7.57,7.03-16.02,11.17-25.35,4.13-9.33,8.33-18.87,12.59-28.61,4.25-9.74,8.45-19.33,12.59-28.77,4.13-9.43,7.92-17.98,11.35-25.66,3.42-7.67,6.32-14.2,8.69-19.59,2.36-5.39,3.9-8.91,4.61-10.57l-3.9-8.4-.35-4.98v-2.49h34.75l.71,1.56c12.29,27.58,23.87,53.39,34.75,77.44,4.49,10.16,9.04,20.42,13.65,30.79,4.61,10.37,8.98,20.17,13.12,29.39,4.13,9.23,7.92,17.52,11.35,24.88,3.42,7.36,6.08,13.22,7.98,17.57,2.6,5.6,4.96,10.21,7.09,13.84,2.13,3.63,4.19,6.48,6.21,8.55,2,2.08,3.84,3.58,5.5,4.51,1.65.93,3.19,1.71,4.61,2.33l1.77.62v8.4h-63.47ZM1372.83,1306.66l-45.38-100.14-42.9,100.14h88.29Z" fill="rgb(227, 0, 5)"/>
    <path d="M1465.12,1389.08l2.13-.62c2.13-.62,3.9-1.45,5.32-2.49,1.42-1.03,2.6-2.75,3.55-5.13.94-2.38,1.65-5.6,2.13-9.64.47-4.04.71-9.17.71-15.39v-141.51c0-5.18-.24-9.43-.71-12.75-.48-3.31-1.19-5.96-2.13-7.93-.95-1.97-2.19-3.47-3.72-4.51-1.54-1.04-3.25-1.87-5.14-2.49l-2.13-.31v-8.71h62.4v8.71l-2.13.31c-1.89.62-3.54,1.45-4.96,2.49-1.42,1.04-2.66,2.59-3.72,4.67-1.06,2.08-1.83,4.87-2.3,8.4-.48,3.53-.71,7.98-.71,13.37v160.79c0,7.46,4.25,11.2,12.76,11.2h41.48c17.73,0,31.56-2.28,41.48-6.84,9.93-4.56,16.9-11.82,20.92-21.77l.71-2.18,9.22,1.56-7.09,39.19h-168.06v-8.4Z" fill="rgb(227, 0, 5)"/>
    <path d="M1738.7,1400.58c-9.7,0-19.74-1.3-30.14-3.89-10.4-2.59-19.98-5.96-28.72-10.11-8.75-4.14-16.08-8.81-21.98-14-5.91-5.18-9.34-10.26-10.28-15.24-.48-3.11-.3-5.7.53-7.78.83-2.07,1.83-3.62,3.01-4.67,3.54-3.73,8.27-5.6,14.18-5.6,5.43,0,10.04,1.66,13.83,4.98,1.89,1.87,4.37,4.98,7.45,9.33,2.6,3.32,5.61,7.05,9.04,11.2,3.42,4.15,7.38,8.09,11.88,11.82,4.49,3.73,9.57,6.84,15.25,9.33,5.67,2.49,12.05,3.73,19.15,3.73,6.38,0,13-.88,19.86-2.64,6.85-1.76,13.06-4.3,18.61-7.62,5.55-3.31,10.16-7.36,13.83-12.13,3.66-4.77,5.5-10.16,5.5-16.17,0-7.05-2.48-13.16-7.45-18.35-4.96-5.18-11.11-9.8-18.44-13.84-7.33-4.04-15.19-7.62-23.58-10.73-8.39-3.11-16.02-6.22-22.87-9.33-11.35-4.98-21.93-9.43-31.73-13.37-9.81-3.94-18.26-8.24-25.35-12.91-7.09-4.67-12.71-10.11-16.84-16.33-4.14-6.22-6.21-14.1-6.21-23.64,0-7.05,1.77-14.1,5.32-21.15,3.55-7.05,8.74-13.42,15.6-19.13,6.85-5.7,15.42-10.31,25.71-13.84,10.28-3.52,22.16-5.29,35.63-5.29s25,1.3,35.28,3.89c10.28,2.59,19.15,5.96,26.59,10.11,7.45,4.15,13.59,8.76,18.44,13.84,4.84,5.08,8.45,10.21,10.81,15.39,1.42,2.91,1.95,5.6,1.6,8.09-.35,2.49-1.36,4.62-3.01,6.38-1.66,1.76-3.67,3.11-6.03,4.04-2.37.93-4.85,1.4-7.45,1.4-3.07,0-6.03-.72-8.86-2.18-2.84-1.45-5.09-3.62-6.74-6.53-1.66-2.9-3.78-6.94-6.38-12.13-2.6-5.18-6.2-10.31-10.81-15.39-4.61-5.08-10.64-9.54-18.08-13.37-7.45-3.83-16.73-5.75-27.83-5.75-6.15,0-12.18.88-18.08,2.64-5.91,1.76-11.23,4.25-15.96,7.46-4.73,3.22-8.69,7.05-11.88,11.51-3.19,4.46-5.26,9.48-6.2,15.08-1.42,7.46.53,14.05,5.85,19.75,5.32,5.71,11.93,10.73,19.86,15.08,7.92,4.35,16.19,8.04,24.82,11.04,8.63,3.01,15.66,5.44,21.1,7.31,8.98,3.32,18.32,6.79,28.01,10.42,9.69,3.63,18.49,7.88,26.42,12.75,7.92,4.87,14.48,10.68,19.68,17.42,5.2,6.74,7.8,14.77,7.8,24.1,0,10.16-2.72,19.28-8.16,27.37-5.44,8.09-12.47,14.93-21.1,20.53-8.63,5.6-18.26,9.85-28.9,12.75-10.64,2.9-21.16,4.35-31.56,4.35Z" fill="rgb(227, 0, 5)"/>
  </g>
  <g>
    <path d="M224.94,1795.99v-12.44l4.25-1.24c1.65-.41,3.07-1.14,4.25-2.18,1.18-1.04,2.13-2.59,2.84-4.66.71-2.07,1.24-4.92,1.59-8.55.35-3.62.53-8.34.53-14.15v-156.44c0-1.45-.59-2.69-1.77-3.73-1.19-1.04-2.48-1.56-3.9-1.56h-11.7c-5.44,0-10.34.47-14.71,1.4-4.38.93-8.28,2.44-11.7,4.51-3.43,2.08-6.62,4.77-9.57,8.09-2.96,3.32-5.73,7.36-8.33,12.13l-2.13,3.11-12.76-1.87,2.84-42.3h186.86l2.84,42.3-13.47,1.87-1.42-3.42c-2.84-4.77-5.73-8.76-8.69-11.97-2.96-3.21-6.21-5.86-9.75-7.93-3.54-2.07-7.57-3.58-12.05-4.51-4.49-.93-9.7-1.4-15.6-1.4h-9.22c-1.9,0-3.37.52-4.43,1.56-1.06,1.04-1.6,2.28-1.6,3.73v156.44c0,5.81.18,10.53.53,14.15.35,3.63.89,6.48,1.6,8.55.71,2.07,1.71,3.63,3.01,4.66,1.3,1.04,2.78,1.76,4.43,2.18l4.25,1.24v12.44h-67.01Z" fill="rgb(227, 0, 5)"/>
    <path d="M518.83,1783.55l4.25-1.24c1.65-.41,3.07-1.14,4.25-2.18,1.18-1.04,2.13-2.59,2.84-4.66.71-2.07,1.24-4.92,1.6-8.55.35-3.62.53-8.34.53-14.15v-65.62h-119.13v65.62c0,5.81.18,10.53.53,14.15.36,3.63.94,6.48,1.77,8.55.83,2.07,1.89,3.63,3.19,4.66,1.3,1.04,2.78,1.76,4.43,2.18l3.9,1.24v12.44h-66.3v-12.44l3.9-1.24c1.65-.41,3.07-1.14,4.25-2.18,1.18-1.04,2.18-2.59,3.01-4.66.83-2.07,1.42-4.92,1.77-8.55.35-3.62.53-8.34.53-14.15v-138.4c0-9.12-.83-15.24-2.48-18.35-1.66-3.11-4.02-5.18-7.09-6.22l-3.9-.62v-13.06h66.3v13.06l-3.9.62c-1.66.42-3.08,1.09-4.25,2.02-1.19.93-2.19,2.38-3.01,4.35-.83,1.97-1.48,4.51-1.95,7.62-.48,3.11-.71,7.05-.71,11.82v56.91h119.13v-58.16c0-9.12-.77-15.24-2.3-18.35-1.54-3.11-3.84-5.18-6.91-6.22l-4.25-.62v-13.06h66.66v13.06l-4.25.62c-1.42.42-2.72,1.09-3.9,2.02-1.19.93-2.19,2.38-3.01,4.35-.83,1.97-1.48,4.51-1.95,7.62-.48,3.11-.71,7.05-.71,11.82v137.15c0,5.81.18,10.53.53,14.15.35,3.63.94,6.48,1.77,8.55.83,2.07,1.83,3.63,3.01,4.66,1.18,1.04,2.6,1.76,4.25,2.18l4.25,1.24v12.44h-66.66v-12.44Z" fill="rgb(227, 0, 5)"/>
    <path d="M601.9,1783.55l3.9-1.24c1.65-.41,3.07-1.14,4.25-2.18,1.18-1.04,2.18-2.59,3.01-4.66.83-2.07,1.42-4.92,1.77-8.55.35-3.62.53-8.34.53-14.15v-133.42c0-5.6-.18-10.21-.53-13.84-.35-3.62-.95-6.53-1.77-8.71-.83-2.18-1.83-3.78-3.01-4.82-1.19-1.04-2.6-1.76-4.25-2.18l-3.9-.62v-13.06h182.6l4.25,47.9-13.83,3.11-1.42-4.04c-5.2-11.4-12.53-19.64-21.98-24.73-9.46-5.08-22.69-7.62-39.71-7.62h-41.13c-4.25-.2-7.57-.31-9.93-.31h-6.03v81.17h50.7c8.98,0,16.37-.36,22.16-1.09,5.79-.72,10.4-1.76,13.83-3.11,3.42-1.35,5.97-3.11,7.62-5.29,1.65-2.18,2.95-4.61,3.9-7.31l1.42-3.42h13.83v55.05h-13.83l-1.42-3.73c-.95-2.69-2.25-5.08-3.9-7.15-1.66-2.07-4.2-3.83-7.62-5.29-3.43-1.45-8.04-2.54-13.83-3.27-5.79-.72-13.18-1.09-22.16-1.09h-50.7v95.79h67.01c16.54,0,29.48-2.54,38.83-7.62,9.33-5.08,16.49-13.53,21.45-25.35l2.13-3.73,13.12,1.87-3.55,49.14h-191.82v-12.44Z" fill="rgb(227, 0, 5)"/>
    <path d="M996.14,1771.11c2.6,3.11,6.08,5.6,10.46,7.46,4.37,1.87,9.16,2.91,14.36,3.11v14.62h-29.43c-8.51,0-16.49-1.81-23.93-5.44-7.45-3.62-13.53-8.45-18.26-14.46l-50.35-64.07c-2.84.21-5.67.37-8.51.47-2.84.11-5.91.16-9.22.16h-18.44v39.81c0,5.81.18,10.53.53,14.15.35,3.63.89,6.48,1.59,8.55.71,2.07,1.71,3.63,3.01,4.66,1.3,1.04,2.78,1.76,4.43,2.18l3.9,1.24v12.44h-66.3v-12.44l3.9-1.24c1.65-.41,3.07-1.14,4.25-2.18,1.18-1.04,2.18-2.59,3.01-4.66.83-2.07,1.42-4.92,1.77-8.55.35-3.62.53-8.34.53-14.15v-133.42c0-5.6-.18-10.21-.53-13.84-.35-3.62-.95-6.53-1.77-8.71-.83-2.18-1.83-3.78-3.01-4.82-1.19-1.04-2.6-1.76-4.25-2.18l-3.9-.62v-13.06h76.94c15.12,0,27.95,1.24,38.47,3.73,10.51,2.49,19.38,5.71,26.59,9.64,7.21,3.94,12.94,8.29,17.2,13.06,4.25,4.77,7.45,9.54,9.57,14.31,2.13,4.77,3.49,9.23,4.08,13.37.59,4.15.89,7.46.89,9.95,0,14.51-4.02,27.16-12.05,37.94-8.04,10.78-19.27,19.08-33.68,24.88,4.02,2.08,7.68,4.87,10.99,8.4l47.16,59.71ZM880.55,1698.65c20.09,0,35.4-4.4,45.92-13.22,10.51-8.81,15.78-21.51,15.78-38.1,0-5.39-.77-11.35-2.3-17.88-1.54-6.53-4.61-12.64-9.22-18.35-4.61-5.7-11.29-10.47-20.03-14.31-8.75-3.83-20.45-5.75-35.1-5.75h-12.76v107.61h17.73Z" fill="rgb(246, 246, 245)"/>
    <path d="M1027.59,1783.55l3.9-1.24c1.65-.41,3.07-1.14,4.25-2.18,1.18-1.04,2.18-2.59,3.01-4.66.83-2.07,1.42-4.92,1.77-8.55.35-3.62.53-8.34.53-14.15v-133.42c0-5.6-.18-10.21-.53-13.84-.35-3.62-.95-6.53-1.77-8.71-.83-2.18-1.83-3.78-3.01-4.82-1.19-1.04-2.6-1.76-4.25-2.18l-3.9-.62v-13.06h182.6l4.25,47.9-13.83,3.11-1.42-4.04c-5.2-11.4-12.53-19.64-21.98-24.73-9.46-5.08-22.69-7.62-39.71-7.62h-41.13c-4.25-.2-7.57-.31-9.93-.31h-6.03v81.17h50.7c8.98,0,16.37-.36,22.16-1.09,5.79-.72,10.4-1.76,13.83-3.11,3.42-1.35,5.97-3.11,7.62-5.29,1.65-2.18,2.95-4.61,3.9-7.31l1.42-3.42h13.83v55.05h-13.83l-1.42-3.73c-.95-2.69-2.25-5.08-3.9-7.15-1.66-2.07-4.2-3.83-7.62-5.29-3.43-1.45-8.04-2.54-13.83-3.27-5.79-.72-13.18-1.09-22.16-1.09h-50.7v95.79h67.01c16.54,0,29.48-2.54,38.83-7.62,9.33-5.08,16.49-13.53,21.45-25.35l2.13-3.73,13.12,1.87-3.55,49.14h-191.82v-12.44Z" fill="rgb(246, 246, 245)"/>
    <path d="M1399.1,1795.99v-13.06l4.25-.62,1.06-.93c1.18-1.66,1.77-3.83,1.77-6.53,0-2.28-.71-4.98-2.13-8.09-.71-1.45-1.72-3.73-3.01-6.84-1.3-3.11-2.78-6.63-4.43-10.57-1.66-3.94-3.43-7.98-5.32-12.13-1.89-4.15-3.55-7.88-4.96-11.2-1.19-2.49-2.07-4.35-2.66-5.6-.59-1.24-1.12-2.38-1.6-3.42h-90.41l-20.92,44.78c-1.42,3.32-2.37,6.27-2.84,8.86-.48,2.59-.71,5.44-.71,8.55,1.42,1.45,3.31,2.49,5.67,3.11l4.25,1.24v12.44h-49.99v-12.44l3.9-1.24c1.89-.41,3.72-1.04,5.5-1.87,1.77-.83,3.6-2.12,5.5-3.89,1.89-1.76,3.96-4.25,6.2-7.46,2.24-3.21,4.55-7.41,6.91-12.6.94-2.28,3.25-7.51,6.91-15.71,3.66-8.19,7.98-17.93,12.94-29.23,4.96-11.3,10.28-23.37,15.96-36.23,5.67-12.85,10.99-24.93,15.96-36.23,4.96-11.3,9.27-21.09,12.94-29.39,3.66-8.29,5.97-13.48,6.91-15.55l-3.54-7.78-.35-5.29v-4.98h39l1.06,3.11c12.05,26.96,23.28,52.15,33.68,75.57,4.49,9.95,9.04,20.01,13.65,30.17,4.61,10.16,8.98,19.75,13.12,28.77,4.13,9.02,7.8,17.16,10.99,24.41,3.19,7.26,5.73,12.96,7.62,17.11,2.36,5.18,4.55,9.44,6.56,12.75,2.01,3.32,3.9,5.96,5.67,7.93,1.77,1.97,3.37,3.42,4.79,4.35,1.42.93,2.84,1.61,4.25,2.02l3.55,1.24v12.44h-67.72ZM1376.05,1702.38l-40.42-88.64-37.58,88.64h78Z" fill="rgb(246, 246, 245)"/>
    <path d="M1473.13,1783.55l3.9-1.24c1.65-.41,3.07-1.14,4.25-2.18,1.18-1.04,2.18-2.59,3.01-4.66.83-2.07,1.42-4.92,1.77-8.55.35-3.62.53-8.34.53-14.15v-138.4c0-9.12-.77-15.24-2.3-18.35-1.54-3.11-3.96-5.18-7.27-6.22l-3.9-.62v-13.06h66.3v13.06l-3.9.62c-1.42.42-2.72,1.09-3.9,2.02-1.19.93-2.19,2.38-3.01,4.35-.83,1.97-1.48,4.51-1.95,7.62-.48,3.11-.71,7.05-.71,11.82v157.37c0,5.6,3.31,8.4,9.93,8.4h40.42c16.54,0,29.43-2.12,38.65-6.38,9.22-4.25,15.72-10.93,19.5-20.06l1.42-4.04,14.18,2.18-7.45,42.92h-169.48v-12.44Z" fill="rgb(246, 246, 245)"/>
    <path d="M1749.19,1799.1c-9.93,0-20.09-1.35-30.49-4.04-10.4-2.69-20.03-6.17-28.9-10.42-8.86-4.25-16.31-9.02-22.34-14.31-6.03-5.29-9.4-10.52-10.11-15.71-.24-.62-.35-1.66-.35-3.11,0-2.49.41-4.67,1.24-6.53.83-1.87,1.83-3.31,3.01-4.35,1.89-2.07,4.25-3.68,7.09-4.82,2.84-1.14,5.79-1.71,8.86-1.71,6.14,0,11.35,1.87,15.6,5.6.94,1.04,2.07,2.39,3.37,4.04,1.3,1.66,2.78,3.42,4.43,5.29,2.36,3.11,5.2,6.69,8.51,10.73,3.31,4.04,7.09,7.83,11.35,11.35,4.25,3.53,8.98,6.48,14.18,8.86,5.2,2.38,10.99,3.58,17.37,3.58,5.91,0,12.05-.83,18.44-2.49,6.38-1.66,12.17-3.99,17.37-7,5.2-3,9.51-6.69,12.94-11.04,3.42-4.35,5.14-9.33,5.14-14.93s-1.66-10.16-4.96-14.31c-3.31-4.14-7.57-7.88-12.76-11.2-5.2-3.31-10.99-6.32-17.37-9.02-6.38-2.69-12.76-5.29-19.15-7.78l-15.25-6.53c-3.08-1.45-6.09-2.8-9.04-4.04-2.96-1.24-5.85-2.38-8.69-3.42-8.99-3.73-17.26-7.36-24.82-10.88-7.57-3.52-14.07-7.46-19.5-11.82-5.44-4.35-9.7-9.49-12.76-15.4-3.08-5.91-4.61-13.01-4.61-21.3,0-7.26,1.77-14.46,5.32-21.62,3.55-7.15,8.8-13.63,15.78-19.44,6.97-5.8,15.66-10.52,26.06-14.15,10.4-3.62,22.34-5.44,35.81-5.44s25.35,1.3,35.63,3.89c10.28,2.59,19.15,6.02,26.59,10.26,7.45,4.25,13.65,8.97,18.61,14.15,4.96,5.19,8.63,10.37,10.99,15.55,1.18,2.7,1.77,5.19,1.77,7.46,0,4.77-2.01,8.55-6.03,11.35-4.02,2.8-8.39,4.2-13.12,4.2-5.44,0-9.75-1.4-12.94-4.2-3.19-2.8-5.5-6.27-6.91-10.42-1.66-3.31-3.84-7.25-6.56-11.82-2.72-4.56-6.33-8.86-10.81-12.91-4.49-4.04-9.93-7.51-16.31-10.42-6.38-2.9-14.18-4.35-23.4-4.35-5.67,0-11.23.78-16.67,2.33-5.44,1.55-10.34,3.84-14.71,6.84-4.38,3.01-8.04,6.58-10.99,10.73-2.96,4.15-4.91,8.71-5.85,13.68v3.73c0,5.81,2.54,11.15,7.62,16.02,5.08,4.87,11.22,9.23,18.44,13.06,7.21,3.84,14.71,7.11,22.51,9.8,7.8,2.7,14.42,4.88,19.86,6.53l7.09,2.8c8.51,3.11,17.2,6.43,26.06,9.95,8.86,3.53,16.9,7.73,24.11,12.6,7.21,4.87,13.12,10.57,17.73,17.1,4.61,6.53,6.91,14.36,6.91,23.48,0,10.16-2.72,19.34-8.16,27.52-5.44,8.19-12.53,15.14-21.27,20.84-8.75,5.71-18.5,10.06-29.25,13.06-10.76,3-21.33,4.51-31.73,4.51Z" fill="rgb(246, 246, 245)"/>
  </g>
  <rect x="1742.42" y="1504.7" width=".9" height="0" fill="none"/>
  <g>
    <path d="M166.27,795.74v-13.38l4.58-1.34c1.78-.44,3.3-1.22,4.58-2.34,1.27-1.11,2.29-2.79,3.05-5.02.76-2.23,1.33-5.29,1.72-9.2.38-3.9.57-8.98.57-15.22v-168.27c0-1.56-.64-2.9-1.91-4.01-1.28-1.11-2.67-1.67-4.2-1.67h-12.59c-5.85,0-11.13.5-15.83,1.51-4.71,1-8.9,2.62-12.59,4.85-3.69,2.23-7.12,5.13-10.3,8.7-3.18,3.57-6.17,7.92-8.96,13.05l-2.29,3.34-13.73-2.01,3.05-45.5h200.99l3.05,45.5-14.49,2.01-1.53-3.68c-3.05-5.13-6.17-9.42-9.34-12.88-3.18-3.46-6.67-6.3-10.49-8.53-3.81-2.23-8.14-3.85-12.97-4.85-4.83-1-10.43-1.51-16.78-1.51h-9.92c-2.04,0-3.62.56-4.77,1.67-1.14,1.12-1.72,2.46-1.72,4.01v168.27c0,6.25.19,11.32.57,15.22.38,3.9.95,6.97,1.72,9.2.76,2.23,1.84,3.91,3.24,5.02,1.39,1.12,2.99,1.9,4.77,2.34l4.58,1.34v13.38h-72.08Z" fill="rgb(34, 30, 42)"/>
    <path d="M482.4,782.36l4.58-1.34c1.78-.44,3.3-1.22,4.58-2.34,1.27-1.11,2.29-2.79,3.05-5.02.76-2.23,1.33-5.29,1.72-9.2.38-3.9.57-8.98.57-15.22v-70.59h-128.15v70.59c0,6.25.19,11.32.57,15.22.38,3.9,1.01,6.97,1.91,9.2.89,2.23,2.03,3.91,3.43,5.02,1.39,1.12,2.99,1.9,4.77,2.34l4.2,1.34v13.38h-71.32v-13.38l4.2-1.34c1.78-.44,3.3-1.22,4.58-2.34,1.27-1.11,2.35-2.79,3.24-5.02.89-2.23,1.53-5.29,1.91-9.2.38-3.9.57-8.98.57-15.22v-148.87c0-9.81-.89-16.39-2.67-19.74-1.78-3.34-4.33-5.57-7.63-6.69l-4.2-.67v-14.05h71.32v14.05l-4.2.67c-1.78.45-3.31,1.17-4.58,2.17-1.28,1-2.35,2.57-3.24,4.68-.89,2.12-1.59,4.85-2.1,8.2-.51,3.35-.76,7.58-.76,12.71v61.22h128.15v-62.56c0-9.81-.83-16.39-2.48-19.74-1.66-3.34-4.14-5.57-7.44-6.69l-4.58-.67v-14.05h71.7v14.05l-4.58.67c-1.53.45-2.93,1.17-4.2,2.17-1.28,1-2.35,2.57-3.24,4.68-.89,2.12-1.59,4.85-2.1,8.2-.51,3.35-.76,7.58-.76,12.71v147.53c0,6.25.19,11.32.57,15.22.38,3.9,1.01,6.97,1.91,9.2.89,2.23,1.97,3.91,3.24,5.02,1.27,1.12,2.79,1.9,4.58,2.34l4.58,1.34v13.38h-71.7v-13.38Z" fill="rgb(34, 30, 42)"/>
    <path d="M571.76,782.36l4.2-1.34c1.78-.44,3.3-1.22,4.58-2.34,1.27-1.11,2.35-2.79,3.24-5.02.89-2.23,1.53-5.29,1.91-9.2.38-3.9.57-8.98.57-15.22v-143.52c0-6.02-.19-10.98-.57-14.89-.38-3.9-1.02-7.02-1.91-9.37-.89-2.34-1.97-4.07-3.24-5.19-1.27-1.11-2.8-1.89-4.58-2.34l-4.2-.67v-14.05h196.42l4.58,51.52-14.87,3.35-1.53-4.35c-5.6-12.26-13.48-21.13-23.65-26.6-10.17-5.46-24.41-8.2-42.72-8.2h-44.24c-4.58-.22-8.14-.33-10.68-.33h-6.48v87.31h54.54c9.66,0,17.6-.39,23.84-1.17,6.23-.78,11.19-1.89,14.87-3.34,3.68-1.45,6.42-3.35,8.2-5.69,1.78-2.34,3.18-4.96,4.2-7.86l1.53-3.68h14.87v59.21h-14.87l-1.53-4.01c-1.02-2.9-2.42-5.46-4.2-7.69-1.78-2.23-4.52-4.12-8.2-5.69-3.69-1.56-8.65-2.73-14.87-3.51-6.23-.78-14.18-1.17-23.84-1.17h-54.54v103.04h72.08c17.79,0,31.72-2.73,41.76-8.2,10.04-5.46,17.73-14.55,23.07-27.26l2.29-4.01,14.11,2.01-3.81,52.86h-206.33v-13.38Z" fill="rgb(34, 30, 42)"/>
    <path d="M995.82,768.98c2.79,3.35,6.54,6.02,11.25,8.03,4.7,2.01,9.85,3.13,15.45,3.34v15.72h-31.66c-9.15,0-17.73-1.95-25.74-5.85-8.01-3.9-14.56-9.08-19.64-15.56l-54.16-68.92c-3.05.23-6.1.39-9.15.5-3.05.12-6.36.17-9.92.17h-19.83v42.82c0,6.25.19,11.32.57,15.22.38,3.9.95,6.97,1.72,9.2.76,2.23,1.84,3.91,3.24,5.02,1.39,1.12,2.99,1.9,4.77,2.34l4.2,1.34v13.38h-71.32v-13.38l4.2-1.34c1.78-.44,3.3-1.22,4.58-2.34,1.27-1.11,2.35-2.79,3.24-5.02.89-2.23,1.53-5.29,1.91-9.2.38-3.9.57-8.98.57-15.22v-143.52c0-6.02-.19-10.98-.57-14.89-.38-3.9-1.02-7.02-1.91-9.37-.89-2.34-1.97-4.07-3.24-5.19-1.27-1.11-2.8-1.89-4.58-2.34l-4.2-.67v-14.05h82.76c16.27,0,30.06,1.34,41.38,4.01,11.31,2.68,20.85,6.14,28.6,10.37,7.75,4.24,13.92,8.92,18.5,14.05,4.58,5.13,8.01,10.26,10.3,15.39,2.29,5.13,3.75,9.93,4.39,14.38.63,4.46.95,8.03.95,10.71,0,15.61-4.33,29.22-12.97,40.81-8.65,11.6-20.73,20.52-36.23,26.76,4.32,2.23,8.26,5.24,11.82,9.03l50.73,64.23ZM871.49,691.03c21.61,0,38.07-4.74,49.39-14.22,11.31-9.48,16.97-23.14,16.97-40.98,0-5.8-.83-12.21-2.48-19.24-1.66-7.03-4.96-13.6-9.92-19.74-4.96-6.13-12.15-11.26-21.55-15.39-9.41-4.12-22-6.19-37.76-6.19h-13.73v115.75h19.07Z" fill="rgb(227, 0, 5)"/>
    <path d="M1029.65,782.36l4.2-1.34c1.78-.44,3.3-1.22,4.58-2.34,1.27-1.11,2.35-2.79,3.24-5.02.89-2.23,1.53-5.29,1.91-9.2.38-3.9.57-8.98.57-15.22v-143.52c0-6.02-.19-10.98-.57-14.89-.38-3.9-1.02-7.02-1.91-9.37-.89-2.34-1.97-4.07-3.24-5.19-1.27-1.11-2.8-1.89-4.58-2.34l-4.2-.67v-14.05h196.42l4.58,51.52-14.87,3.35-1.53-4.35c-5.6-12.26-13.48-21.13-23.65-26.6-10.17-5.46-24.41-8.2-42.72-8.2h-44.24c-4.58-.22-8.14-.33-10.68-.33h-6.48v87.31h54.54c9.66,0,17.6-.39,23.84-1.17,6.23-.78,11.19-1.89,14.87-3.34,3.68-1.45,6.42-3.35,8.2-5.69,1.78-2.34,3.18-4.96,4.2-7.86l1.53-3.68h14.87v59.21h-14.87l-1.53-4.01c-1.02-2.9-2.42-5.46-4.2-7.69-1.78-2.23-4.52-4.12-8.2-5.69-3.69-1.56-8.65-2.73-14.87-3.51-6.23-.78-14.18-1.17-23.84-1.17h-54.54v103.04h72.08c17.79,0,31.72-2.73,41.76-8.2,10.04-5.46,17.73-14.55,23.07-27.26l2.29-4.01,14.11,2.01-3.81,52.86h-206.33v-13.38Z" fill="rgb(227, 0, 5)"/>
    <path d="M1429.27,795.74v-14.05l4.58-.67,1.14-1c1.27-1.78,1.91-4.12,1.91-7.03,0-2.45-.76-5.35-2.29-8.7-.76-1.56-1.85-4.01-3.24-7.36-1.4-3.35-2.99-7.13-4.77-11.37-1.78-4.23-3.69-8.58-5.72-13.05-2.04-4.46-3.81-8.47-5.34-12.04-1.27-2.68-2.23-4.68-2.86-6.02-.64-1.34-1.21-2.56-1.72-3.68h-97.25l-22.5,48.17c-1.53,3.57-2.54,6.75-3.05,9.53-.51,2.79-.76,5.85-.76,9.2,1.53,1.56,3.56,2.68,6.1,3.35l4.58,1.34v13.38h-53.78v-13.38l4.2-1.34c2.03-.44,4-1.11,5.91-2.01,1.91-.89,3.87-2.28,5.91-4.18,2.03-1.89,4.25-4.57,6.67-8.03,2.41-3.46,4.89-7.97,7.44-13.55,1.01-2.45,3.49-8.08,7.44-16.89,3.94-8.81,8.58-19.29,13.92-31.45,5.34-12.15,11.06-25.14,17.16-38.97,6.1-13.83,11.82-26.81,17.16-38.97,5.34-12.15,9.98-22.69,13.92-31.61,3.94-8.92,6.42-14.5,7.44-16.73l-3.81-8.36-.38-5.69v-5.35h41.95l1.14,3.35c12.97,28.99,25.04,56.09,36.23,81.29,4.83,10.71,9.73,21.53,14.68,32.45,4.96,10.93,9.66,21.24,14.11,30.94,4.45,9.7,8.39,18.46,11.82,26.26,3.43,7.81,6.16,13.94,8.2,18.4,2.54,5.58,4.89,10.15,7.06,13.72,2.16,3.57,4.19,6.41,6.1,8.53,1.91,2.12,3.62,3.68,5.15,4.68,1.53,1,3.05,1.73,4.58,2.17l3.81,1.34v13.38h-72.85ZM1404.48,695.05l-43.48-95.34-40.43,95.34h83.91Z" fill="rgb(227, 0, 5)"/>
    <path d="M1508.9,782.36l4.2-1.34c1.78-.44,3.3-1.22,4.58-2.34,1.27-1.11,2.35-2.79,3.24-5.02.89-2.23,1.53-5.29,1.91-9.2.38-3.9.57-8.98.57-15.22v-148.87c0-9.81-.83-16.39-2.48-19.74-1.66-3.34-4.26-5.57-7.82-6.69l-4.2-.67v-14.05h71.32v14.05l-4.2.67c-1.53.45-2.93,1.17-4.2,2.17-1.28,1-2.35,2.57-3.24,4.68-.89,2.12-1.59,4.85-2.1,8.2-.51,3.35-.76,7.58-.76,12.71v169.28c0,6.02,3.56,9.03,10.68,9.03h43.48c17.79,0,31.66-2.28,41.57-6.86,9.92-4.57,16.91-11.76,20.98-21.58l1.53-4.35,15.26,2.34-8.01,46.17h-182.31v-13.38Z" fill="rgb(227, 0, 5)"/>
    <path d="M1805.85,799.09c-10.68,0-21.61-1.45-32.8-4.35-11.19-2.9-21.55-6.63-31.08-11.21-9.53-4.57-17.54-9.7-24.03-15.39-6.48-5.69-10.11-11.32-10.87-16.89-.26-.67-.38-1.78-.38-3.34,0-2.68.44-5.02,1.33-7.03.89-2.01,1.97-3.57,3.24-4.68,2.03-2.23,4.58-3.96,7.63-5.19,3.05-1.22,6.23-1.84,9.53-1.84,6.61,0,12.2,2.01,16.78,6.02,1.01,1.12,2.22,2.57,3.62,4.35,1.39,1.79,2.99,3.68,4.77,5.69,2.54,3.35,5.59,7.19,9.15,11.54,3.56,4.35,7.63,8.42,12.2,12.21,4.58,3.79,9.66,6.97,15.26,9.53,5.59,2.57,11.82,3.85,18.69,3.85,6.35,0,12.97-.89,19.83-2.68,6.86-1.78,13.09-4.29,18.69-7.53,5.59-3.23,10.23-7.19,13.92-11.88,3.68-4.68,5.53-10.04,5.53-16.06s-1.78-10.92-5.34-15.39c-3.56-4.46-8.14-8.47-13.73-12.04-5.6-3.56-11.82-6.8-18.69-9.7-6.87-2.9-13.73-5.69-20.6-8.36l-16.4-7.03c-3.31-1.56-6.55-3.01-9.73-4.35-3.18-1.34-6.29-2.56-9.34-3.68-9.67-4.01-18.56-7.91-26.7-11.71-8.14-3.79-15.13-8.03-20.98-12.71-5.85-4.68-10.43-10.2-13.73-16.56-3.31-6.36-4.96-13.99-4.96-22.92,0-7.8,1.91-15.56,5.72-23.25,3.81-7.69,9.47-14.66,16.97-20.91,7.5-6.24,16.84-11.32,28.03-15.22,11.19-3.9,24.03-5.85,38.52-5.85s27.27,1.4,38.33,4.18c11.06,2.79,20.59,6.47,28.6,11.04,8.01,4.57,14.68,9.65,20.02,15.22,5.34,5.58,9.28,11.15,11.82,16.73,1.27,2.9,1.91,5.58,1.91,8.03,0,5.13-2.16,9.2-6.48,12.21-4.33,3.01-9.03,4.52-14.11,4.52-5.85,0-10.49-1.51-13.92-4.52s-5.91-6.74-7.44-11.21c-1.78-3.56-4.14-7.8-7.06-12.71-2.93-4.9-6.81-9.54-11.63-13.88-4.83-4.35-10.68-8.08-17.54-11.21-6.86-3.12-15.26-4.68-25.17-4.68-6.1,0-12.08.84-17.93,2.51-5.85,1.67-11.13,4.13-15.83,7.36-4.71,3.24-8.65,7.08-11.82,11.54-3.18,4.46-5.28,9.37-6.29,14.72v4.01c0,6.25,2.73,11.99,8.2,17.23,5.46,5.24,12.07,9.93,19.83,14.05,7.75,4.13,15.83,7.64,24.22,10.54,8.39,2.9,15.51,5.24,21.36,7.03l7.63,3.01c9.15,3.34,18.5,6.92,28.03,10.71,9.54,3.79,18.18,8.31,25.93,13.55,7.75,5.24,14.11,11.37,19.07,18.4s7.44,15.45,7.44,25.26c0,10.93-2.93,20.8-8.77,29.61-5.85,8.81-13.48,16.28-22.88,22.41-9.41,6.14-19.9,10.82-31.46,14.05-11.57,3.23-22.95,4.85-34.13,4.85Z" fill="rgb(227, 0, 5)"/>
  </g>
</svg>